<mxfile host="Electron" modified="2024-12-05T04:02:39.659Z" agent="Mozilla/5.0 (Macintosh; Intel Mac OS X 10_15_7) AppleWebKit/537.36 (KHTML, like Gecko) draw.io/24.6.1 Chrome/124.0.6367.207 Electron/30.0.6 Safari/537.36" etag="8h_aZ20NSlwsERLqBVhT" version="24.6.1" type="device">
  <diagram name="第 1 页" id="eBrBYec5VE6NSzMYLAJc">
    <mxGraphModel dx="1434" dy="907" grid="1" gridSize="10" guides="1" tooltips="1" connect="1" arrows="1" fold="1" page="1" pageScale="1" pageWidth="827" pageHeight="1169" math="0" shadow="0">
      <root>
        <mxCell id="0" />
        <mxCell id="1" parent="0" />
        <mxCell id="R3ln1mph0E_-AsqHAofX-9" value="" style="ellipse;whiteSpace=wrap;html=1;fillColor=none;" parent="1" vertex="1">
          <mxGeometry x="100" y="450" width="340" height="220" as="geometry" />
        </mxCell>
        <mxCell id="R3ln1mph0E_-AsqHAofX-4" style="edgeStyle=orthogonalEdgeStyle;rounded=0;orthogonalLoop=1;jettySize=auto;html=1;exitX=0.5;exitY=1;exitDx=0;exitDy=0;entryX=0.5;entryY=0;entryDx=0;entryDy=0;" parent="1" source="R3ln1mph0E_-AsqHAofX-1" target="R3ln1mph0E_-AsqHAofX-2" edge="1">
          <mxGeometry relative="1" as="geometry" />
        </mxCell>
        <mxCell id="R3ln1mph0E_-AsqHAofX-1" value="&lt;div style=&quot;text-align: left;&quot;&gt;&lt;font face=&quot;monospace&quot; color=&quot;#333333&quot;&gt;&lt;span style=&quot;font-size: 16px; background-color: rgb(255, 255, 255);&quot;&gt;bind 端口&lt;/span&gt;&lt;/font&gt;&lt;/div&gt;" style="rounded=0;whiteSpace=wrap;html=1;" parent="1" vertex="1">
          <mxGeometry x="210" y="200" width="120" height="60" as="geometry" />
        </mxCell>
        <mxCell id="R3ln1mph0E_-AsqHAofX-5" style="edgeStyle=orthogonalEdgeStyle;rounded=0;orthogonalLoop=1;jettySize=auto;html=1;exitX=0.5;exitY=1;exitDx=0;exitDy=0;entryX=0.5;entryY=0;entryDx=0;entryDy=0;" parent="1" source="R3ln1mph0E_-AsqHAofX-2" target="R3ln1mph0E_-AsqHAofX-3" edge="1">
          <mxGeometry relative="1" as="geometry" />
        </mxCell>
        <mxCell id="R3ln1mph0E_-AsqHAofX-2" value="&lt;div style=&quot;text-align: left;&quot;&gt;&lt;font face=&quot;monospace&quot; color=&quot;#333333&quot;&gt;&lt;span style=&quot;font-size: 16px; background-color: rgb(255, 255, 255);&quot;&gt;Listen&lt;/span&gt;&lt;/font&gt;&lt;/div&gt;" style="rounded=0;whiteSpace=wrap;html=1;" parent="1" vertex="1">
          <mxGeometry x="210" y="310" width="120" height="60" as="geometry" />
        </mxCell>
        <mxCell id="R3ln1mph0E_-AsqHAofX-3" value="&lt;div style=&quot;text-align: left;&quot;&gt;&lt;font face=&quot;monospace&quot; color=&quot;#333333&quot;&gt;&lt;span style=&quot;font-size: 16px; background-color: rgb(255, 255, 255);&quot;&gt;accept&lt;/span&gt;&lt;/font&gt;&lt;/div&gt;" style="rounded=0;whiteSpace=wrap;html=1;" parent="1" vertex="1">
          <mxGeometry x="210" y="420" width="120" height="60" as="geometry" />
        </mxCell>
        <mxCell id="R3ln1mph0E_-AsqHAofX-7" style="edgeStyle=orthogonalEdgeStyle;rounded=0;orthogonalLoop=1;jettySize=auto;html=1;exitX=0.5;exitY=1;exitDx=0;exitDy=0;entryX=0.5;entryY=0;entryDx=0;entryDy=0;" parent="1" source="R3ln1mph0E_-AsqHAofX-6" target="R3ln1mph0E_-AsqHAofX-1" edge="1">
          <mxGeometry relative="1" as="geometry" />
        </mxCell>
        <mxCell id="R3ln1mph0E_-AsqHAofX-6" value="&lt;div style=&quot;text-align: left;&quot;&gt;&lt;font face=&quot;monospace&quot; color=&quot;#333333&quot;&gt;&lt;span style=&quot;font-size: 16px; background-color: rgb(255, 255, 255);&quot;&gt;创建socket&lt;/span&gt;&lt;/font&gt;&lt;/div&gt;" style="rounded=0;whiteSpace=wrap;html=1;" parent="1" vertex="1">
          <mxGeometry x="210" y="90" width="120" height="60" as="geometry" />
        </mxCell>
        <mxCell id="R3ln1mph0E_-AsqHAofX-13" value="&lt;div style=&quot;&quot;&gt;&lt;font face=&quot;monospace&quot; color=&quot;#333333&quot;&gt;&lt;span style=&quot;font-size: 16px; background-color: rgb(255, 255, 255);&quot;&gt;Handler处理http请求&lt;/span&gt;&lt;/font&gt;&lt;/div&gt;" style="rounded=1;whiteSpace=wrap;html=1;align=center;" parent="1" vertex="1">
          <mxGeometry x="50" y="530" width="120" height="60" as="geometry" />
        </mxCell>
        <mxCell id="R3ln1mph0E_-AsqHAofX-14" value="" style="endArrow=classic;html=1;rounded=0;entryX=0.921;entryY=0.786;entryDx=0;entryDy=0;entryPerimeter=0;strokeWidth=2;" parent="1" edge="1">
          <mxGeometry width="50" height="50" relative="1" as="geometry">
            <mxPoint x="417" y="617" as="sourcePoint" />
            <mxPoint x="406.1399999999999" y="629.9200000000001" as="targetPoint" />
          </mxGeometry>
        </mxCell>
        <mxCell id="R3ln1mph0E_-AsqHAofX-15" value="" style="endArrow=classic;html=1;rounded=0;entryX=0.688;entryY=0.968;entryDx=0;entryDy=0;entryPerimeter=0;exitX=0.1;exitY=0.214;exitDx=0;exitDy=0;exitPerimeter=0;strokeWidth=2;" parent="1" edge="1">
          <mxGeometry width="50" height="50" relative="1" as="geometry">
            <mxPoint x="134" y="495.0799999999999" as="sourcePoint" />
            <mxPoint x="150.96000000000004" y="483.02" as="targetPoint" />
          </mxGeometry>
        </mxCell>
        <mxCell id="R3ln1mph0E_-AsqHAofX-16" value="&lt;div style=&quot;text-align: left;&quot;&gt;&lt;font face=&quot;monospace&quot; color=&quot;#333333&quot;&gt;&lt;span style=&quot;font-size: 16px; background-color: rgb(255, 255, 255);&quot;&gt;按照http协议&lt;/span&gt;&lt;/font&gt;&lt;/div&gt;&lt;div style=&quot;text-align: left;&quot;&gt;&lt;font face=&quot;monospace&quot; color=&quot;#333333&quot;&gt;&lt;span style=&quot;font-size: 16px; background-color: rgb(255, 255, 255);&quot;&gt;解析请求报文&lt;/span&gt;&lt;/font&gt;&lt;/div&gt;" style="rounded=1;whiteSpace=wrap;html=1;" parent="1" vertex="1">
          <mxGeometry x="380" y="525" width="120" height="60" as="geometry" />
        </mxCell>
        <mxCell id="340naqe9MVrmrzyRNFm_-1" value="" style="shape=curlyBracket;whiteSpace=wrap;html=1;rounded=1;flipH=1;labelPosition=right;verticalLabelPosition=middle;align=left;verticalAlign=middle;" parent="1" vertex="1">
          <mxGeometry x="400" y="70" width="50" height="390" as="geometry" />
        </mxCell>
        <mxCell id="340naqe9MVrmrzyRNFm_-2" value="&lt;font style=&quot;font-size: 20px;&quot;&gt;TCP&lt;/font&gt;" style="text;html=1;align=center;verticalAlign=middle;whiteSpace=wrap;rounded=0;" parent="1" vertex="1">
          <mxGeometry x="450" y="250" width="60" height="30" as="geometry" />
        </mxCell>
        <mxCell id="340naqe9MVrmrzyRNFm_-3" value="" style="endArrow=classic;html=1;rounded=0;exitX=0.129;exitY=0.832;exitDx=0;exitDy=0;exitPerimeter=0;strokeWidth=2;" parent="1" source="R3ln1mph0E_-AsqHAofX-9" edge="1">
          <mxGeometry width="50" height="50" relative="1" as="geometry">
            <mxPoint x="144" y="627.0799999999999" as="sourcePoint" />
            <mxPoint x="128.26890874817718" y="621.2581037492187" as="targetPoint" />
          </mxGeometry>
        </mxCell>
        <mxCell id="340naqe9MVrmrzyRNFm_-4" value="&lt;span style=&quot;color: rgb(24, 24, 24); font-family: &amp;quot;Pingfang SC&amp;quot;, &amp;quot;helvetica neuepingfang SC&amp;quot;, &amp;quot;helvetica neue&amp;quot;, arial, &amp;quot;hiragino sans gb&amp;quot;, &amp;quot;microsoft yahei ui&amp;quot;, &amp;quot;microsoft yahei&amp;quot;, simsun, sans-serif; font-size: 14px; white-space: pre; background-color: rgb(255, 255, 255);&quot;&gt;POST /user HTTP/1.1 &lt;br&gt;Host: www.user.com&lt;br&gt;Content-Type: application/x-www-form-urlencoded&lt;br&gt;Connection: Keep-Alive&lt;br&gt;User-agent: Mozilla/5.0xxxx&lt;br&gt;&lt;br&gt;name=world &lt;/span&gt;" style="whiteSpace=wrap;html=1;shape=mxgraph.basic.document;align=left;" parent="1" vertex="1">
          <mxGeometry x="560" y="570" width="380" height="150" as="geometry" />
        </mxCell>
        <mxCell id="OguC9G-HAbKnlByE8_Ue-1" value="" style="shape=image;verticalLabelPosition=bottom;labelBackgroundColor=default;verticalAlign=top;aspect=fixed;imageAspect=0;image=data:image/png,iVBORw0KGgoAAAANSUhEUgAAAdIAAAClCAIAAABnUuusAAAgAElEQVR4Ae2dP4jkRtr/DXc2PrizvefbPXax2U0ajsPBwTi4oP06GnB4ggkc+QKx2S8ZWvigDWMmEAxM0ImYyeYCQYd9KGmY5CqZpEEwQSdW0ruRkg4uUOBQr3e+e9/3+ZX+tHqm1dt/HgW7peqqR6Wvqj569KhG9V6umyqgCqgCqsAaFXhvjcfSQ6kCqoAqoArkb7H7z3/+88ed3r7//vsffvhhnaf4j3/8Y52HW/+xfvjhh++//36dx/U8b52HeyfH2pZzXP+Auvfl+Ne//rVppH+D3VevXn388cf/b6e3Z8+e/e1vf7v3lbtHxd/+9rd///vfd1jUP//5z1988cU9lLl3lWfPnn311Vc7LOlXX3317Nmze+uzzoqfffbZmgfUvc/uvfc27pn+LXY///zzZKe3P/3pT7949Ou86f3ud7/797//vcOiHh0dffvtt+uU9Msvv+z3+zssab/f//LLL9cp6b2P9cUXX6x5QN27qYrddzZkFLsrl16xu3JJFbv3ZmtNRcXuyjtqU4OK3aZKNS6n2G0sVdOCit0aet77J8Vu0/638nKK3ZVLqthduaSK3XuztaaiYnflHbWpQcVuU6Ual1PsNpaqaUHFbg097/3TdmP39vb25ubG6kGu61o51q7rure3t9fX11a+tXtycmLlcLd40MvLy+PjYxZokliI3SiKgiCoubS/zOzhr57nZVnG3dKEvlJLkkSKVlRJ/tpE0oav1K6vr8MwZK+4vLys6n4yX6ZZl4nj42NpE/lhGFbVOjk5OT8/Z/WGiXrsGmPiOK4yJcWk1EEQRFHE3WIiTVPf92W+4zhytyq98JWavKC+78dxXGUqvtuqfmW+7/tJknB34amxZBV2i02SbWZ1mUiSBJQo1kWxhuey3EyGw8PDMAxvb29Ho9H19fVoNDo4OEDi6OiotEMcHh7e3t4mSXJwcFAEKKuEYXh4eMhdK2HVHY1Gl5eXVpn63SrspmlKWR3HkbvyGud5Lnsnu6YxhtWtRBvYHd1tOFPIniQJMkejERXABZI5/GmFiSpvV+rmeZ4c9vKne0jaELtSpSRJjo+Pq6Q4OTlhv729vWUPlDf14+Nj3OZhJLzbUPH4+LiKrTUHrbkE9dith1e327V6YJ7n3W5Xduk8z60e699tSZIYY6IoMsa4rgu4h2FYNMichdjlGEEzeAhaYMJxHLQqDMPovxvSLJNlWbfblQ1DLZi1+hVrIVGFXZx7nue8mfEQnueV2ozjGLe3IAhK73NNziXP7/5c4tWrVw0nkIVhCN7xJo+eCrCW9id2ZTgL7KbX//82Go1OTk6YF4ah9KMvLy9vbm7obnBcoXzpca3MUuwaY2gzSRKqj2vZ7XalS0vsyp5qlZHXuw3snp+fU5bRaAQxkYldXo6Dg4Mq1ljK3Hu3CrvosqVmu92uHPbLSvpA7Jb2UmAXSrque3JycnNzc3BwwPYDoMQo+zMLlCZYHr+y25cWZuZDsEvMAaBRFPm+7zjOfzn29n/pM6ZpCnb4vo+uzt0qb449vAl2syxLkoR3C9d1iygPgiBJEjnQeAiZ8DwvTdM4jmEB55hlWSn7ZMU3jKuet4seyJOlhlXtieOYnTaKIlw4Hq7huSyNXfaP6+vry7vt4ODg8vLy/PycIOZPLHBycoI0vAaUtDxf2dF5lCRJJBYJ5fO7De4ejytrFdOl2O12u7insS8CuJZTEN5t6DRI49r7vi9dOaqPRBvYHY1G0hHDucvMo6Mj0LYhHYpCNc8pxa7neXgKwy0tz/Msy6AShg3EuZ+kS2H3/PwcXsLR0RF64MHBQSl5kySRD0/WLZ/YRUjBEpbd+PLyEgUQ4nj+/DkqotOORqOqQ0vBG2IXzxDgKB/RiAz2Q8dxsizzfb8IO5RhVA0ECYIArnGaplVVaLwGu3Bf4DmGYYij0KYkGjtGqatOPz2KIpARIRGcFFpCCLJhxUQNdlEYXTSKom63y7sU7TAHcUhZxvd9qWGe52ma1p8LzDYNMgCmDDKwMx0eHiLtui5v6dfX1+yOh4eHMl92MpmWvVl2UD76yYFBb1daqE+XYhcSYJhR5SRJHMexLqcxBvdVctZ13fo77X5iFzLGcUwcgLzu3caBhBvbspI2we719TXuynT2j4+PcX+SfQx+wOHhITrqzc0Ne6nruqyLGMX5+TmiatfX14eHh3wsOz8/Z4xCdr/j4+ODg4MwDGlT/lqTbohdSVimmWCvRh+ms8kejgTx599tQAZ+cl3XKlzcrcEuCgP6xhhwin631c48zxHWgBMDtOG+QmeI3QYPl2x5HMekXrGFzCliN8uyMAx54rwijuMwjiFHN0c9OjYty0c3ZC48FxRril20TLpabGuSJIQsM0lhdFOEIEFtlmHi5ubm8PCQHvHz58+lwePjYzkqGM1EdYljGiwmqrBb6rGmaWo9EAGyvBJQ30IzLwYS68QuSCHj4xIxRTVWklPq7eZ5jg5tqZFlWRAEcjzfQ9Im2JXdA32DYZli95MqsZj14GWFCw4PDwll13WLD1twFOgjLyX1qrCbJIkMU+KRMY5jqT8uUJqm4KBsJ+rWv19qgl1zt8E+aWuNmjAMrUidfJCXvcjzPGNMmqZsahiGAHQ9fIvYhdn4bkOaKIeXIHcR/EX7EdvFo4B3t8kWNj+Xe2J3NBq5rktQ4t5OOZCAIwCH4vj4uGauAtwTVpeDAZnn5+eI7cKzPjo6wutpxBmkd0wjVqKIXTxZ8PkCsbAoisIwlJ4aZHVdFw9riHug60RR5DiO53mMDclrsGbsWp5XUUNLkIfvlmI3iqI0TWV4kc/CcRzL3nwPSZfFLnsgTpa3dp67VAlBCSvCAG8XMQpYw79wY2V12jw6Orq+vgZ2b29vSXMWqEmsCrt5ntNBq/J20VfRgUEW9l4ikjnFRA12MYOl0+nAS63BLmK11uFKsRuGYafTQf/hcCstWWxqE+zSGY+iCD3TsoO4LY5IFMgyzc9l6dguvd0wDME+kNdyENCxbm9vz8/P8ZPrutKBtXoeujIyr6+v5S4yZf+23nhYpqp2i9iVkiFtXX4WgLOA7os3mHz55nleGIZ8CGKVPM/XiV1cF3kVpGJVmjwwvxS7UoE8z1cr6VLYxfuxJEnYnZCQyjDNgDjDDhSH3i4K49+jo6Pz8/OiJ8F5Y6x1eXl5dHTUxDNIkqQ5dtkDqTAT1iWowS78R/gQ8vVUlSlpuQa7YRgaY/DADtcE/2JyAp1ExvqtwxVhijcBLBYEAchbLClbyPRC7CIgyxguAgWszgSZy1eR/Kn5uaDK0t7u7e3tycmJfI2TJAm7Lzrrzc0N59bgJzx5lZIXrgF7uWUZFJb9mwOjYXgBlh+IXTnbiZcfYSlKbyXWj93z83PeF60r0nDY8yo0STwQu/eQdCns4hTkgxQ0kS9pMbuRoh0fH1u6JUlCdxWvMdAVLy8v5U0Ox+K75evrawTZRqMRXug9f/5c9uEqeRtitxhSlHc4TGiVEJE5fAtEz5FP/Xxukz3c6tXcrcEuykgjeBVWFQqQJeF3s0kwJb1maXwl2A2CIMsy2YbijQpxM7AVbaOMFEQ2jJlVLVwOu67rol8iyIBH/uvra9kFDw8P5e2d/Xg0GuH1rtXn6IwgvzgvnY5DkiR4uUELR0dHpShnASYegl1LUHmFZJpaI9EGdhEEx0lhUh1CmQQHLwRlx2MydVhh4iHYvZ+k98Cu7F1SE+hwcHDATIQXEKuRdykWOLx7mYb+hk4uSYo4GOWVnbb05QdLykRD7Fo9zRLT+pUvjqx87JZyoaZX08hS2MVLEU5uoREkrMOVNkneVxB+LQW0ZRm7Vd4uXHLMZcKkJlwL3n7w4hevBGFKts11Xc7S5XEbnsvS2IWzQJ8Uf4HG0Z4kCV8y3Nxt8qebmxu8qmJX46jATInRaERnVpbBM+Dx8fHR0dHx3QZv4uTkRNpnlWJiWexy2lNRUL7uxIsLFrASbWAX8iJQTp3h5IIUiELiAYKRd0mHojL3zrkHdq1pSeyjDSVtjl3EXnHiCHZZsW+cNWc3n9xtyDw/P4d/AEmlt3t8fHx7e4voLcIX8g2bVNLCrvypJr0Qu9JvpT+LROm8JTxSWM6j7KiSI3meg0G8LrKkla7BbpZlcRyzPZJiiDBYQTkeLssy6VFaR2SxVWEXr3NwFBrHSzOGj+UEjziOZRW+PZZvLGin/lyWwy57DP66Abs17Kv5yZqcAK+t1B2+vr7GAMBLD7YBiYZzdEqxywnPMMV4GXflhaegTKw/yGCd+7vdLcWufIS3/gIFuw+RtDl2cfuhPlUxrtu7zXJUcW9DvxqNRnycwuOFFdq6vLyUrjGP2BJ2S/90CpJWsbXqcRi1rDlYmMPDGTvyYlnpGuzihR7+agaP8LIuZ/IyU7YckwH4PpBlimMNJS2Cy/JMV3m7LCCNY8ZbqVmGgGVFK93wXO6JXXavbUmUYteSbLW7LXm7myN4KXZXq6FlrSF2N0eiZVtS7+1aarzb3Xrsvtu2WUdvgl2rStu7it22FFbsrlxZxe7KJb23QcXuvaVbegLZsnfvzSmv3u7Kr4V6uyuXVL3dh7Csqq56uyvvqE0NKnabKtW4nGK3sVRNCyp2q9D5kHzFbtP+t/Jyit2VS6rYXbmkit2H4LWqrmJ35R21qUHFblOlGpdT7DaWqmlBxW4VOh+Sr9ht2v9WXk6xu3JJFbsrl1Sx+xC8VtVV7K68ozY1qNhtqlTjcordxlI1LajYrULnQ/I3FLuvX7/+9a9//Z5uK1Xg/fffX6m9rTSmIqz8sm2IpL/5zW9WfmotGfzLX/7yEGq3UfftvN3Hjx/39nv75ptvvv322xVK/OGHH758+XKfRX358uXTp09XKGl7pr7++usff/yxPfsrtPzixYtXr16t0KCaWr8Cit23YFTsrvwOodhtYzwrdttQdc02FbuK3ZXz9q1BxW4bg1mx24aqa7ap2FXsKnZzDTKsmTt7fjjFrmJXsavY3XMMrvv074/dq6urmvFa/6tVsd/vj0YjK7O42+/3z87OivnFnOFwWMysz9ml2O5gMMDJ9vv9i4uL+hNv79eHBBnkN0zlmCj9Ip8sYKVrvpQoSy70dmV7srtNVr9HWhrkB2Sb2NEgQxOVNrzMcti9urriMJ7NZuPxuGrQDofD2WzGX8fj8eBuk0CUaJ5MJsYYlpd4vbq6Go1Gk8lkNptNJpPxeGyMGY/H0+lUFmPd09PT+XwujfOnmsTOYPfi4mI+n/f7/V6vNxgM5vN5zVm3+lM9dvE9aetb3dztdrvFpWuwAETNiDLGyMVx8YHUmvL8aSF2sWohyjNtoZO/YvUa+flmrAbGw+V5jtV5meO6bulHZlmAiefPnxdnMmDqFctoYsMVWA67vV5vNptNp1Mk6FXJ0TsajcZ323w+H4/Hs9ns6upqPp8DuxKIs9kMSzobY6Z3G3an0ynB0ev1wFkeAsZ7vd50OgVc+BMS0+kUtwSUBK+tMsXdncHudDrFbQm64SrgQsgbW1GBlecsxK78JrQ1Tvgt+SzL8McGWLDAGCP/9gBLiLKu4zj4ijbwjS98N1nTuwl2ueIAVpkNgoALKLABkvulUEbJKIo8z8NSEUEQ4OPiWLALn96nwWKiFLsotoF/F1Bsv+b834cfm8zbJeNmsxk8ylLsnp6e0gs2xsC9hc91dnYGZPd6vdFoJN1hjvl+vz+dTqVlchZmjTGISNAU6/Z6PcvL7vf7s9msSQRjN7B7enoqVR0MBtgdDAa8fFKuVtMNsSvxxJgAsctRaozxPC9NU5bhT0iEYQgy+r4PNGMNIWNM1eKJtFCD3SRJsIg3Fo1GG/I8l2vVwA4WfZFLc9K+leD9Br45d4tnbVXM87wGu2/G83tvHCndNlyBJbxdEI0P73BgS8ct/dP5fI6gBBBpjGGM4vT0FE4uHV5jzGQyKZpFPAHwvbq6AvThbqMK2wDKyHgF4hIsUJPYDexCQIQXcO5wfufz+Zpd3V6v1xC7eGYHKOm9FgGEnDiOZRiBoyu+27DmICBL1P5y4pLsrCITNdhFMawmi6PHcQyUJ0lCYnLRLURCZIQBaSxygwW4YBM5bDmWIJOtKk0rdktl2a7MJbALXzLPc0RUS4OG/X5/MBhcXV1Np9PhcDiZTK6uroBXhAVqwAdfWAZ/UZjeLkhN13UwGCBkjGJnZ2eTyaTX68HDPTs7a87cXq/XELudTsdah7Hqeq//r9QuLi4QYCF2qfZsNpMPEMxvNdEcu3x+51rZFnaDIADg5JKLpa/XsBqmvCgwVYwUyzLNsQtrbKd1D8iyDJEHuuSywfKIMhyBfJZkXVmeacUupdjexHLYBXkxViV2h8MhRzXSiOTyXzzqjsdjOsvWgEdsl5m0htguosAIF0ynU4CYiEEt+RANt5eAptmaREPsNmTuLzen9WN3MpnIqAKjuuPxuPgMUSPFqn5aFXbBMoRrgyDA2yes4WoRCnTGqs/y7VwURSR76VhdiF0ueWth11rt0fO8brcr7weEqXVc0NkYw3bi1BC8tgrLXcWuVGNL002xOxwOi9EA5ki/cjAYkIzGGACXcViGGvHwSwvz+VzmyIAsvV3g4OLiAkHe2WzGkIUkBd7I8bUSYhSlJWWththtfpnXj13p5IK/8rYn72TyxNtLN8cu1yF3XRd8tLxdyl5FMTy8A44INZCzVaZo85fyNdiNoqjb7VoN830fbPU8j340bsnW4Uob7LouX8cxGFJaUjYSacVuUZOty2mKXWtwgqelLKPDBQoAkRK7pbVqnoLH4zHmjSFoi7dGo9GINtm24XAI5lqIqTHOuopdSrGqRHPs0mllHNaCF8eVxSY4tnmeI94qf3UcB2SsMkWb9dhFMd/3jTGIwyZJ4jgOXtwxMksP1zqcbBJMWXTGq0KcgowUy+bJtGJXqrGl6ftgF7NBMWNhNptZ0dhS7HJGF1+yWWO7iox4RzSdTiWsR6OR9dR8cXHB93VFU8Uc6+jNY7sExMLrrd5uQ+yWKkl44Rmck8bCMHQch7tJktCrtcgVRdFqscsDpWkKCtPPlafAliOziF3ky2LFsLU0aKUVu5Yg27i7NHYxl4DuJN5ccXYBPFy8N8c0A/ikmGMr5xgQfKenpzWzgPv9vhVkwBRU/CtZTIO4E/D5mo/bLFCaaOjtdjodPhXWX2/F7kqwa4mM2btWJndLGScBx5JWoibIgJJ8h5bnOV+jua5bJK91uNIm5XluFbPuGVbz5K5iV6qxpeklsItHeM7JlfBCMBc5iO0yjXlLxYAAq2NeGidIMJ8JYheBBTrX+CsM+fcXqIL3b6iFf+fzeenfs/EQzb1dPksuvN7vELuYwMcnDP6tRM1VkFKsKr0Qu5hBJV1Xphn6tHReCrv4A4Qi4Cyb9UGGLMuCIOh0OkmSwM+V1V3XdRxHTlDj4TC9zPO80tABi+V5niQJJgU3eWGr2JX6b2m6KXZHo1Gpa8khKicSMJMJspI5MnF2dlZjHMS8uLiAXywr9nq9Ik+LOfVtg8GG3m7zy/xOsNvv96+urooKWKKtZ7ceu/jzsyo9q25vDOaWVsyyzKoIjpcWlpkLvV0wtzTEZB3R2q0iadFNriop26l/LmGpsaW7TbG7noH6Do+yG9h9hwIWD12P3Y0aMAuxuzmtVW93c67FvVui2H2LC8VukZsPzFHs3ntY1lRU7NaIsy0/KXYVuw+ka2V1xW4bFFDstqHqmm0qdhW7ldx84A+K3TYGs2K3DVXXbFOxq9h9IF0rqyt22xjMit02VF2zTcWuYreSmw/8QbHbxmBW7Lah6pptKnYVuw+ka2V1xW4bg1mx24aqa7b5BruvX79+9OjRH/d7e/z48aeffvrs2bPPVrSppH/84x8fPXr09OnTFSnaoplPP/30yZMnLR5gdaYfPXr0+vXrKkzoZ86rlNmo/Lfe7pMnT/gxME2oAqrAxirw5MmT4lpqZIpil1JscuItdp8/f77JrdS2qQKqABTQIMMO9ATF7g5cRD2FPVJAsbsDF1uxuwMXUU9hjxRQ7O7AxVbs7sBF1FPYIwUUuztwsRW7O3AR9RT2SAHF7g5cbMXuDlxEPYU9UuDh2A3DUH4gOM9zLJZRIyJWqs/zvMk3/ouLN0vLpV8flgX2Ia3Y3YerrOe4Owo8HLtpmuIr8nLlUKR93y8FK9fIMMbID7RTVnAZ3yMuLcCSYRjiEFibzvO8KIqwVhPL7HxCsbvzl1hPcKcUeDh28zyPokiKwiWLih9fRzFiN8/zNE3Du01awKJEoHnVyiBhGHL1kCiKsPonnN9Sg5b9XdpV7O7S1dRz2X0FVoJdLoEBDnqeBybGccz4AxGZJEkYht1ulzlcLxlyG2Pg58JsjbfreR6qdLtdHAjY5fJ0u3/97s5QsbuzF5rjJ89zmd7ZE96PE1uI3fo/VAuCgE/0YRhiYWbP8xBkwE/sLUEQgKSIIRDWxfis67pEag12sco9/gIQl4ve7n5cvbdnqdjdncvtOE6n02Fv7nQ6eJZMkqTT6XBU7M4J7+WZ1GM3z/P37rZ6bchNrkKPe7MVfMjzvNvtpmmKIANisq7rFovlec4OVopdIh6RXPwLs4ha1Dd4x35V7O7OBfU8jz0+iiIMGATjut1u6VDZnZPfmzNZiF0oUe/zEruYdYDoQRiGxYd9Ywyx6/t+cZ3NNE0ZfEiSxBjDcEQcx47jsIpcAJRpervM2Ycrqdjdh6us57g7CizEbnNvF4hEnCGKoiAIiGOpF9a9x09FLsuSeZ7XvBwDtcFoz/PAWR6RHoNlcCd3Fbs7eVn1pHZWgXrsNmEuJuqCd5a3SwjiIQkxX8xSwE9RFLmuy+BvUWXHcYwxpROBOV8CDUBdmM2yTLFbFFNzVAFVYCMUWIjdha1M07TT6WCumISdnCUmg1QSu/BnO52O7/tF+Hqex2Cx7/vdblfOSLO8XbQTmZ1Oh7GIhe3fgQLq7e7ARdRT2CMFHo5d6WwSuzKSINXMsqz4E6K9shjiwpzqgJ+MMZ1Oh5n13q60tvNpxe7OX2I9wZ1SYCXYpSIyqsB4K39lwnXdqldemJNAtrIKEkmS0CmWFpi5n296FbtWP9FdVWCjFVgtdjf6VHe3cYrd3b22ema7qIBidweuqmJ3By6insIeKaDY3YGLrdjdgYuop7BHCih2d+BiK3Z34CLqKeyRAordHbjYit0duIh6CnukgGJ3By62YncHLqKewh4poNjdgYv9FrsfffTRj7qpAqrAxivw0UcfvXr1qgo99V/Aqaql+WtW4A12f/rppw8++OCz/d5+//vfP378+OvVbb/61a+ePn26z6I+ffr0/fffX52iLVr65JNPXrx40eIBVmf6ww8//Omnn6owoditUmaj8t96u48fP+7t9/bNN998++23K7w2H3744cuXL/dZ1JcvXz59+nSFkrZn6uuvv/7FzW3P/gota5BhhWK+K1OK3bdgVOyu/A6h2G1jVCt221B1zTYVu4rdlfP2rUHFbhuDWbHbhqprtqnYVewqdnMNMqyZO3t+OMWuYlexq9jdcwyu+/Tvj93xeHx6elo1ZOt/tWr1+/3JZFJjDeUvLi6Gw2G/38cuE5a1Xq83mUxqfi2W7/V6uxTbHY/HOMezszOmS8+61cyHBBnk57E5JrIsW/idQH5mG7Ww6iItVCUWertYUgzVsWJYlSl+0rCqAPKtE+Sa5/W18jzXIMNCiTa/wHLYHY1GHMaz2Ww0GlWN24uLi/l83uv1ANPpdDq+2yaTydnZGWrRVK/XwxrOyO/3+8PhkJbH4/H0bptMJjAynU6NMfP5/OLigsWYwKEHgwFzeETmFBM7g93hcDibzXCCg8GA6SYiFGV5SE49duM4xgdek7INyyBa48e/26xMuRuGIdevxdKK/Ix31QdhUX0hduUqNa7rAu4WOmHKdV0slCDXyvV937oBcIFRfIUWi+vIc6lKK3arlNmi/OWwC0dyPp+fnp7OZjOJNo7Pyd1mjJnNZpPJZDqdDodDILjX683nc47/2WwGjFr/TqfT2WxGdxW/0j53p9MpM2ViNpuBy0D5bDabz+e0JkvK9M5gF6ri3CeTyXw+R3o6nU4mE3nKbacXYld+Y9saM8RlkiRcYxFL0HMX63pJnAGIvu+D5FhjxvM8Y4zlBVuHa4LdOI6zLEvTFHeLIAjYSFqrWcCRZbC4A0pGURTHcZIkwDos1/vLil2p5Jaml8AuXUtjTL/fn8/npdgFmjGk4Z/2ej34XBcXFxz58GGLI//i4sIYI/PH47ExZjAYTKfTwWAwmUzgC5didzKZ0L/r9XqDwaDKKZaH2Jkgw8XFBU6/3++fnp7S2x0Oh1UXy9JhhbsNsQsmApRhGNL7s0ZUGIZBECRJUrXoFvkbhmEcx1EUwRsF1Cxr1m4NdmHKdd3gbqM3zQRNRVFU1XiWwbpkPAUsxEtTRY7LikgrdouabF3OEtgFwshE6bdaY3U4HIKJs9mMQQbgWAZwh8Mh4wbwYeGdke8wS+wO7jZSFU4xd3u9Hg0iEw2W8QqrnXK3obcrFyapv9jv5M8lptMpHixw7nyMmM/nMqQjT7y9dEPsWktsgZVFAHW7XTCLkJL687pg4a88zxkBqPGpaaEGuyiDRsZx7DhOFEUIGkRR5DiO5ZzipyAI6JUjXQxNIM7AlteHjNlUxS6l2N7EEtil84goAeMGctziHQ48WWMMHvbBx16vV+qfojriucYYyWX8xKgCqArHbTAYXF1d8R7Q6/UuLi4Ya55MJojwNmRuc2+3+RKn68fucDhEbAdXClEg3qs21tu1sItogIVdBkyt1W2LA8+qmOc5curh2xC7xhjQn2227gFxHKMAGyYbzMw8z+E7yxyUrHHnUVixK0Xb0vRy2MV47vV6CDIQuHzw7/V6Z2dnMpAqvd2rq6sqnwuBYBqUEyEAcbMEj10AAA0vSURBVMB3MBgYY66urhBtYMiCFfESbzQaydCzbI8sKdMNvd36NzOyE6wZu6enpwjF0NPfMewiBoqXZohIINgqNfc8D3jFxAAU63a79YHdX1zjeuwmSeI4DiwT4rBpYdf3fYv7pdglnbEELwMsnudZvrM8O6QVu0VNti6nKXZBTD60IhrAXTqk9Ij5SgcUoJ+LsMPZ2RnnNqAu3vxIg1dXV8CiNI54JWiLN3sSnYD+fD4HxNEGzHmgNas8dxtit/kFXjN2cSIM5haDDJvs7fKRnE/iFrwoeynF8KvneUEQAI7SZ6wyRZv12MWLO7yXA38xBwNkd12XfjQmt1mHKzYY1VmM1YslZQuZVuxSiu1NNMUu8YQEpihIn5QFOPKBYLi3ErulD/7SOaUpuK4IVuBFPF+mYb6EVRKZRVPFHFkR6d3Drox6N1GgqMkDcxrGdqMooovHBKmUJAn8XOkSIo1gKPxNLAwuycU1xmmqZpTWe7uYeyBdZsdx+AbPMmsdTjYJJa3gdZqmqFIsaVnGrmK3VJbtyrwPdjkzFO/Nrb90KMUu3M/ZbJbnOSeQyVFdxQVOgZKFx+OxNT8Bf0mBMkVTxRxpDemG2MXL9CbXWL3dhtgtFZPwSu82lsFLLe5aCUkuvqqiKauw3F0Ku8aYMAzTNC0lr3U42SR5RFkMIK4qKWvpn0tYamzp7tLYhe8psWVNP5CPt3zDA293NBoVH/YRqK0hoxVkgNuLN2al7vZsNjPGyHhFzVw3nkhD7Ha73YV/KIWu8M6xW/R2m8S4KcjDEwuxW//nEqUjilHRql/5zM4CEnDMtBLNsYsQAar7d5tlyjpcFUytYpikUWy8ZVyxWxRkG3OaYvfs7AyP8NbsLgxOSUa87EL+2dkZOMsgQ3Ewn56eYtpTcQ4DjY9GI8z5lZ41K1ooxx9o4A0+/p1Op1XG2Z6G2G1+jd8hdnFnkn8zwpx1knchdmsoU6QSlF8KuwjLVpmSl7Ieu2EYdjqdNE2jKOKUW1THH00wNpLnOabi5nmeZZnv+91ud6FTzJKc9CbbZqU1yGAJso27TbH7wBcyD6kOUrTNi93ALv8am7eTd5iox+69R0vzySTND1GPXdiRbG1uuaq1RWtVJa1j1WBXl5awtNrY3abYfYejdz2H3hnsrkeuJkdpCbttjKUm2G3juPewWYrd9+62e1jTKu9EAcXuW4AodpuQdKkyit02hvSLFy9qlrBs44hqc+UKKHYVu0uxdInCit2VD9c8zxW7bai6ZpuKXcXuEiRdqqhit43BrNhtQ9U121TsKnaXYukShRW7bQxmxW4bqq7ZpmJXsbsESZcqqthtYzArdttQdc02FbuK3aVYukRhxW4bg1mx24aqa7b5BruvX7/+4IMPMAdF/12VAu+///6qTG2vHRVh5dfuk08++c9//rNmTOjhVqvAW2/3xYsXq7XbkrUtml+pXklLfUDNqgLbroBit60rqNhtS1m1qwpsuQKK3bYuoGK3LWXVriqw5Qoodtu6gIrdtpRVu6rAliug2G3rAip221JW7aoCW67AQ7Fb9dmkqvwqufhR6qoCyF/4Sk1+2Cm72+oNLvxVGsTX/BZWQQHFbkOhtJgqsG8KLMYu16bmAtQy0el0LDDleR6GIb86WiqoMUYWSNPUWm+1tFb9mleo4vs+v4jKdLGFWKYFH0K11oxhdRi0FkB0XbfhZ84Vu1UXUfNVgT1XoBF25SpSll78hnSWZVjhCh+ilku3JknieZ7EmeM4YRhy4UKQ3fO8KIpKvwnNgy70drmSNlbqhsEi0yX3S6GMI0ZRhIURYSdNU6wc7vt+FEX1Hrpil1dNE6qAKiAVWAK7Mm7Az+ATuzRqjPE8L03TKiqFYQiO+77PdQl/8WSNMfXMrfd2kyTBagJBEHh3GxrseZ5124jjGB5rzeoGOB0WgG/O3eJZ8/SZUOxSCk2oAqqAVGAJ7DqOw+fxbrcLqBUBhJw4jmUYgYeM7zYJWaLWGFPjeMJCQ28XR4/jGChPkoTEzPMcLUckhGfEFWqxwBdCJTgoctjyLMssjvPsZEKxK9XQtCqgClCB5bDLaqQtE/gpCAIATq7cJ91kacGCF0zRj2ZJmWiOXVhjzMG6B2RZhsgDXXLZYHlEGY5APkuyrizPtGKXUmhCFVAFpAKrxC5YhhduQRDg7VMURQgmyKOCzlmWybdzWJTXYrGsVR9kQEmGFyzsep4nTXmeR4cd+YSpLJbnOehsjGFTcWoIXluF5a5iV6qhaVVAFaACS2AXWAR9+JLK8nZpt4pieHgHHBFqIGerTNFmPXajKOp2u67rwiCxywgv/Wi83LMOV9pg13V5pgyGlJaUjURasVvURHNUAVUgz/MlsCuf0zktwYIXNbXYBMc2z3PEW+WvjuNUhYlpjYkmQQZjDOKwSZI4jgNfm5FZRjyslssm4XAWnfGqEKcgI8Vsm5VQ7FqC6K4qoApAgSWwWyoZ4QUvGDMTkiQJw9BxHO7ihRUtSMZFUbRa7NJ9TtPU931zt/HQTLDlyJFNYhnMQuNuMWzNn4oJxW5RE81RBVSB5bzdUr0seLEMZu9y10qUMq7KlKzbxNsldumeu67LCAOtWYcrbZKFXdStKknLSCh2LUF0VxVQBaBAI283DEPptzIdx7EFL8q6FHbDMPR9v8oUbdbHdrMsC4Kg0+kkSQI/V1Z0XddxHDlBjYfD9DLP80pDByyW53mSJJgUzBiLPISVVuxaguiuKqAKQIHF2C36iVI7hkplJr5dUPNHtFmWWRWBcstIcXehtwvmlk7tso5o7VaRtHj6VSWt1ip2LUF0VxVQBaDAYuxulFILsbs5rVXsbs610JaoAhulgGK3rcuh2G1LWbWrCmy5Aordti6gYrctZdWuKrDlCih227qAit22lFW7qsCWK6DYbesCKnbbUlbtqgJbroBit60LqNhtS1m1qwpsuQKK3bYuoGK3LWXVriqw5Qq8we5PP/308ccfP9uG7dGjR59++uk2tPTZxx9//Ne//vV/dFMFVqrAd9999/PPP285dva9+W+93T/84Q+hbqqAKrDxCjx58uTVq1f7zq0tP/+32P3888/5J7+aUAVUgY1V4PPPP1fsbjl1//vhR8Xuxg4zbZgqIBVQ7G47c//vC2SKXdmzNa0KbKwCil3F7sZ2Tm2YKrCbCih2Fbu72bP1rFSBjVVAsavY3djOqQ1TBXZTgRrscrk/gsn6xjTzmYjjGKsBFOuyDArgO66O45R+0BUHyrJMfpu74YIAPND+JHQmw24OTj2rXVWgBrthGLqum2WZ7/tcahYJLu1qoY1kNMbIL/qjGHKwMpa1tKBlh3WZQAGuAGuV3/Ndxe6uDk89r91UoAa7eZ5briggmGVZ6Yf/rfVY0zTFrGUyMQgCQBwLEmIdFvxqff4fCycWl5uxKEzLe55Q7O7m4NSz2lUF6rFLnOH0u91uHMdIWz8hMwzDbrdLrbjAdp7nCBc4jgNPGeEIZHqeF4YhlsjC6rQ8EKzFcRwEAV1pHloTUECxyy6nCVVgCxQoxS4WEvTvtizLEFiIogih2CiKfN/niq55ngdBgEWtAFMucGUtJxiGIRYPdF0Xri7Wh/U8zwIovFrJ2WIZq8o+7yp2t2CkaRNVASpQil0gTPqqMqqAuhbmut1umqYAJd6nua4rYxRhGCKSgF/h3iJdDB10Op0wDAFxRpORkC2x2rC3u4pd9mdNqAJboEBD7MrQged5xYkKxhhi1/f9qoVZ4fBi2ew8z+EOS+wGQeA4Dl6dGWN4IMtx3lvClp64YncLRpo2URWgAk2wG8dxt9tlqKFqGkMYhohL5HkuQxAgBaojTEFwB0EQRRHZihBwnucAMWZQGGPiOPY8T8YcSumzt5mKXfZnTagCW6BAPXaNMXAzLW8XMVlgLk1TYpRkjKIIk88kCukF071N07R0ThgKgO/Sz2VFaVbTit0tGGnaRFWACtRgF9MSMMFA8s73fWI3iiJEdcE+Yhd+a6fT8X0fFlig2+3yryQQUihGJBzHMcZEUSQN0gtWzloKKHbZnzWhCmyBAjXYTZKE78SAXcxwcByH2OX4x1+UMciAfER7WQZRCMxzQBov2TzPo034167rIvIg36oB8bSmCSqg2N2CkaZNVAWoQA12OaoxRQy7WZYV47YsiZlh3GUCs9C4C0+Wu3meyz+XQMAXv0r0y2bIuppW7LI/a0IV2AIFGmJX0bbJCih2t2CkaRNVASqg2N1knjZsm2KX/VkTqsAWKKDYbYi2TS6m2N2CkaZNVAWogGJ3k3nasG2KXfZnTagCW6CAYrch2ja5mGJ3C0aaNlEVoAKK3U3macO2KXbZnzWhCmyBAordhmjb5GJvsfvkyZNQN1VAFdh4BZ48efLq1atNZoq2baECb7D7888/f/fdd/+jmyqgCmy8At99993PP/+8cGBrgU1W4A12dVMFVAFVQBVYmwKK3bVJrQdSBVQBVeCNAopd7QeqgCqgCqxVgf8FYapkn84uT8MAAAAASUVORK5CYII=;" vertex="1" parent="1">
          <mxGeometry x="560" y="365" width="466" height="165" as="geometry" />
        </mxCell>
        <mxCell id="OguC9G-HAbKnlByE8_Ue-2" value="" style="shape=curlyBracket;whiteSpace=wrap;html=1;rounded=1;labelPosition=left;verticalLabelPosition=middle;align=right;verticalAlign=middle;size=0.5;" vertex="1" parent="1">
          <mxGeometry x="520" y="365" width="20" height="355" as="geometry" />
        </mxCell>
        <mxCell id="OguC9G-HAbKnlByE8_Ue-3" value="&lt;span style=&quot;color: rgb(51, 51, 51); font-family: monospace; font-size: 16px; text-align: left; background-color: rgb(255, 255, 255);&quot;&gt;http协议报文&lt;/span&gt;" style="text;html=1;align=center;verticalAlign=middle;whiteSpace=wrap;rounded=0;" vertex="1" parent="1">
          <mxGeometry x="570" y="325" width="120" height="30" as="geometry" />
        </mxCell>
        <mxCell id="OguC9G-HAbKnlByE8_Ue-4" value="&lt;span style=&quot;color: rgb(51, 51, 51); font-family: monospace; font-size: 16px; text-align: left; background-color: rgb(255, 255, 255);&quot;&gt;根据method+URL路由到对应的Handler&lt;/span&gt;" style="rounded=1;whiteSpace=wrap;html=1;" vertex="1" parent="1">
          <mxGeometry x="200" y="630" width="150" height="60" as="geometry" />
        </mxCell>
        <mxCell id="OguC9G-HAbKnlByE8_Ue-5" value="" style="endArrow=classic;html=1;rounded=0;entryX=0.947;entryY=0.232;entryDx=0;entryDy=0;entryPerimeter=0;strokeWidth=2;" edge="1" parent="1">
          <mxGeometry width="50" height="50" relative="1" as="geometry">
            <mxPoint x="394" y="482" as="sourcePoint" />
            <mxPoint x="405.98" y="494.03999999999996" as="targetPoint" />
            <Array as="points" />
          </mxGeometry>
        </mxCell>
        <mxCell id="OguC9G-HAbKnlByE8_Ue-6" value="&lt;font style=&quot;font-size: 16px;&quot;&gt;LOOP&lt;/font&gt;" style="text;html=1;align=center;verticalAlign=middle;whiteSpace=wrap;rounded=0;" vertex="1" parent="1">
          <mxGeometry x="245" y="540" width="60" height="30" as="geometry" />
        </mxCell>
      </root>
    </mxGraphModel>
  </diagram>
</mxfile>
